HIERARCHY
ROOT Hips
{
	OFFSET -3.958830 18.904000 13.208200
	CHANNELS 6 Xposition Yposition Zposition Zrotation Yrotation Xrotation 
	JOINT LHipJoint
	{
		OFFSET 0.000000 0.000000 0.000000
		CHANNELS 3 Zrotation Yrotation Xrotation
		JOINT LeftUpLeg
		{
			OFFSET 1.800000 -1.400000 0.085000
			CHANNELS 3 Zrotation Yrotation Xrotation
			JOINT LeftLeg
			{
				OFFSET 2.215000 -6.000000 0.000000
				CHANNELS 3 Zrotation Yrotation Xrotation
				JOINT LeftFoot
				{
					OFFSET 2.500000 -6.900000 0.000000
					CHANNELS 3 Zrotation Yrotation Xrotation
					JOINT LeftToeBase
					{
						OFFSET 0.200000 -0.500000 1.950000
						CHANNELS 3 Zrotation Yrotation Xrotation
						End Site
						{
							OFFSET 0.000000 0.000000 0.000000
						}
					}
				}
			}
		}
	}
	JOINT RHipJoint
	{
		OFFSET 0.000000 0.000000 0.000000
		CHANNELS 3 Zrotation Yrotation Xrotation
		JOINT RightUpLeg
		{
			OFFSET -1.800000 -1.400000 0.085000
			CHANNELS 3 Zrotation Yrotation Xrotation
			JOINT RightLeg
			{
				OFFSET -2.215000 -6.000000 0.000000
				CHANNELS 3 Zrotation Yrotation Xrotation
				JOINT RightFoot
				{
					OFFSET -2.500000 -6.900000 0.000000
					CHANNELS 3 Zrotation Yrotation Xrotation
					JOINT RightToeBase
					{
						OFFSET -0.200000 -0.500000 1.950000
						CHANNELS 3 Zrotation Yrotation Xrotation
						End Site
						{
							OFFSET 0.000000 0.000000 0.000000
						}
					}
				}
			}
		}
	}
	JOINT LowerBack
	{
		OFFSET 0.000000 0.000000 0.000000
		CHANNELS 3 Zrotation Yrotation Xrotation
		JOINT Spine
		{
			OFFSET -0.087000 1.940000 -0.288900
			CHANNELS 3 Zrotation Yrotation Xrotation
			JOINT Spine1
			{
				OFFSET 0.000000 1.950000 0.060000
				CHANNELS 3 Zrotation Yrotation Xrotation
				JOINT Neck
				{
					OFFSET 0.000000 0.000000 0.000000
					CHANNELS 3 Zrotation Yrotation Xrotation
					JOINT Neck1
					{
						OFFSET 0.000000 1.600000 0.340000
						CHANNELS 3 Zrotation Yrotation Xrotation
						JOINT Head
						{
							OFFSET 0.000000 1.667000 -0.240000
							CHANNELS 3 Zrotation Yrotation Xrotation
							End Site
							{
								OFFSET 0.000000 0.000000 0.000000
							}
						}
					}
				}
				JOINT LeftShoulder
				{
					OFFSET 0.000000 0.000000 0.000000
					CHANNELS 3 Zrotation Yrotation Xrotation
					JOINT LeftArm
					{
						OFFSET 2.700000 1.550000 -0.730000
						CHANNELS 3 Zrotation Yrotation Xrotation
						JOINT LeftForeArm
						{
							OFFSET 5.450000 0.000000 0.000000
							CHANNELS 3 Zrotation Yrotation Xrotation
							JOINT LeftHand
							{
								OFFSET 3.450000 0.000000 0.000000
								CHANNELS 3 Zrotation Yrotation Xrotation
								JOINT LeftHandIndex1
								{
									OFFSET 0.750000 0.000000 0.000000
									CHANNELS 3 Zrotation Yrotation Xrotation
									End Site
									{
										OFFSET 0.000000 0.000000 0.000000
									}
								}
							}
						}
					}
				}
				JOINT RightShoulder
				{
					OFFSET 0.000000 0.000000 0.000000
					CHANNELS 3 Zrotation Yrotation Xrotation
					JOINT RightArm
					{
						OFFSET -2.700000 1.550000 -0.730000
						CHANNELS 3 Zrotation Yrotation Xrotation
						JOINT RightForeArm
						{
							OFFSET -5.450000 0.000000 0.000000
							CHANNELS 3 Zrotation Yrotation Xrotation
							JOINT RightHand
							{
								OFFSET -3.450000 0.000000 0.000000
								CHANNELS 3 Zrotation Yrotation Xrotation
								JOINT RightHandIndex1
								{
									OFFSET -0.750000 0.000000 0.000000
									CHANNELS 3 Zrotation Yrotation Xrotation
									End Site
									{
										OFFSET 0.000000 0.000000 0.000000
									}
								}
							}
						}
					}
				}
			}
		}
	}
}
MOTION
Frames: 13
Frame Time: 0.016667
-0.201730 7.239680 -4.148370 1.924342 24.985779 -83.436894 -16.159838 11.352185 9.674732 -65.384901 63.317583 52.532352 143.714868 -32.504421 31.418169 -0.540737 17.889786 -0.702002 -9.954410 0.717520 -16.425120 18.140706 -13.042029 -3.825431 -97.550465 43.928505 80.826045 102.770993 71.125039 -38.908150 2.623001 -12.926674 -8.751623 7.190400 18.886460 6.403160 -2.004026 -3.648333 -3.465659 -25.800450 -28.341278 2.025510 -97.509821 38.437664 46.153779 -9.450014 -6.861258 20.824206 -26.234375 85.198306 10.212113 9.804390 23.513800 8.072080 -39.497111 -6.828822 -20.591484 -173.266385 -60.115826 138.494730 141.554305 22.768442 65.250192 -21.117097 -0.267921 -13.684040 12.328770 -4.694340 1.297400 48.434184 8.536811 -5.344532 151.920388 27.502682 84.095515 8.905153 -22.201357 -16.660661 0.851205 -4.843114 -1.426570 8.605050 8.896820 13.523350 
-0.378410 6.763710 -4.145420 -13.300902 18.028266 -87.228648 -15.662336 9.232442 8.947250 -81.121194 45.939809 52.153152 135.198477 -36.081159 48.230796 -1.464613 18.321117 -0.132805 -11.266070 -1.265170 -17.568950 18.936573 -11.719873 -2.444769 -82.647248 26.510384 105.183398 -17.728201 62.277405 -139.832044 5.451882 -6.118387 -5.458464 7.301260 20.787880 6.566240 -4.015434 -1.021779 -3.865066 -9.286935 -44.124736 -0.781026 -109.046192 37.673468 41.502373 -11.702975 -5.484263 22.887047 -29.893031 86.411397 9.369480 8.659810 23.349970 10.217240 -37.113541 -4.850683 -23.266355 -170.014616 -72.581776 148.114636 151.169586 34.166496 105.371814 -23.196065 -0.453549 -14.818360 14.232330 -6.582630 0.761490 48.229598 9.068136 -3.161751 151.009509 27.654404 87.036540 12.858644 -20.236744 -17.937198 0.060004 -5.275977 -2.391910 9.024500 9.848440 13.478670 
0.305520 7.639270 -4.746150 44.833604 20.491882 -75.922425 -15.223235 9.348737 7.060818 -136.967425 12.821271 6.340883 105.397101 -41.798874 75.550880 1.231213 25.615127 -1.532281 -11.808490 -2.233340 -17.916120 18.984579 -11.265850 0.311883 -157.547947 22.277524 24.379015 -6.858589 84.403250 -137.386499 5.962762 -4.332273 -4.386075 6.469920 20.735780 6.132280 -4.791166 1.647292 -6.845624 -20.038915 -23.637225 1.260387 -113.424420 19.664065 15.125953 -7.800207 -6.683499 17.775818 -31.870161 82.939401 16.907749 10.184420 24.155530 12.240100 -40.340919 -8.797595 -24.629209 179.132834 -74.388822 175.872341 159.182057 35.609576 132.522781 -22.322954 -0.602920 -14.588770 13.850650 -6.657560 0.612080 45.568880 10.333714 -2.930797 151.105049 27.741511 84.698919 11.637098 -24.007340 -17.802965 0.125150 -4.909183 -2.460540 8.798560 9.997520 13.419830 
0.435560 8.054330 -4.940640 76.220345 14.634692 -73.303837 -14.969002 9.032351 6.019431 -144.827878 -6.075414 -3.273274 83.104740 -39.553833 92.299641 3.145624 30.409165 -1.581945 -12.422020 -3.304070 -18.251800 19.205340 -11.074395 1.459576 -172.328585 -0.160953 0.359246 42.543720 85.242529 -89.798953 4.629704 -14.016230 -8.189609 5.962320 21.211560 6.267200 -5.364384 3.358479 -7.691404 -20.571819 -10.889282 1.104576 -111.978148 8.760440 6.090436 -7.090962 -7.010606 15.213156 -48.089921 82.234238 3.738840 8.500740 22.357950 12.989560 -40.641591 -12.416960 -23.664677 161.634041 -72.748624 -152.453740 162.180734 33.620829 149.572105 -22.442158 -1.031912 -14.943510 14.269990 -7.081650 0.451790 45.518249 11.714480 -3.144385 150.452332 27.600805 79.580405 13.143260 -28.204742 -18.398613 0.036397 -4.970112 -2.481290 8.516530 10.193740 13.431520 
-0.050270 8.249320 -4.890020 101.883941 7.608224 -75.259158 -14.564056 10.269231 6.052801 -145.690329 -20.591361 -13.918894 63.769354 -35.766987 101.673473 2.569616 32.286129 -2.389007 -11.497480 -1.378000 -18.113270 19.203925 -13.886869 -0.262130 -171.496707 -21.894750 -27.268051 83.010173 77.518423 -47.971056 3.706839 -18.617776 -10.087011 7.409040 21.398910 6.398690 -5.864945 6.496520 -6.753614 -17.329999 1.124641 0.209247 -111.208624 -0.111856 0.451352 -8.187215 -6.216582 14.791953 -59.391566 81.532814 -8.019023 7.774190 19.974580 10.962700 -39.786147 -16.086043 -26.248914 162.608003 -73.699518 -152.314068 163.857797 31.830437 157.517027 -22.453104 -0.962495 -15.539510 14.541110 -7.355740 0.816990 46.993484 13.083146 -3.771548 145.834158 27.260658 66.826525 6.213662 -34.408617 -19.848296 -0.385887 -5.490923 -2.476680 8.999370 9.820030 13.732590 
-0.152080 8.264340 -4.779080 105.373231 4.867004 -78.502567 -14.460794 9.847204 6.571949 -146.872023 -12.041779 -17.569401 80.087491 -43.229432 79.158392 1.221927 30.164992 -2.176287 -12.043470 -2.134010 -19.137260 19.254949 -14.544870 -0.539139 -170.536841 -25.000825 -35.413944 117.859109 55.244943 -20.616138 4.868145 -17.883176 -9.618254 7.860770 22.451940 6.338230 -6.084029 8.027804 -6.523162 -15.435554 5.135225 -0.127099 -112.116056 2.332375 0.659512 -9.601387 -6.283406 17.357812 -54.061905 81.771590 -6.134874 5.295860 15.569040 10.620330 -39.072043 -13.722114 -29.298502 152.242296 -68.281853 -147.669580 -177.175530 35.772997 -136.131943 -23.845053 -0.136004 -16.323880 15.494580 -8.560940 0.625200 47.717372 12.117468 -5.131930 152.790402 29.062818 74.279123 23.973780 -37.444744 -25.270224 -1.926923 -5.811611 -2.992550 9.521900 10.474890 13.876970 
0.068670 7.983350 -4.494330 94.142961 8.639263 -71.512140 -14.753482 7.965551 8.162644 -131.997731 -16.016640 -21.536922 47.312941 -29.504759 112.513202 0.764323 35.146416 -3.661913 -13.708750 -4.353450 -20.029810 19.447252 -12.335460 0.081269 -172.802657 -7.279056 -18.857522 113.815305 55.987213 -26.863382 6.558638 -17.636887 -9.040176 7.650880 23.452210 5.148820 -6.030784 6.718669 -7.651370 -20.395146 5.959535 1.118540 -105.426400 7.149447 9.976429 -9.445163 0.195017 17.758633 102.740944 77.125712 153.392880 18.694800 33.633940 19.764270 -33.762616 -18.287618 -34.369055 -171.889885 -87.726183 168.218929 174.595475 9.178903 -170.793621 -26.038345 -0.831209 -16.173210 16.477620 -9.737280 -0.693840 44.757907 7.952560 -3.715296 150.013934 38.846527 129.517552 53.541716 32.272023 -6.592876 -1.899254 -6.394542 -4.687200 10.533410 11.709610 13.358990 
-0.116390 8.457400 -4.303810 104.611880 12.598729 -70.684495 -14.674047 8.972759 6.876888 -109.371583 -33.364666 -41.403058 36.510039 0.330988 129.311357 3.530412 27.103028 -1.863716 -7.874810 5.319790 -16.325820 19.353676 -13.222167 -0.159292 -179.380500 -14.376884 -25.030458 114.816886 50.175677 -25.434171 2.053329 -16.587509 -10.978865 10.153010 19.739760 7.958800 -5.983517 7.226115 -6.954909 -33.157902 14.875343 0.067318 -101.022880 1.138723 9.332417 -14.600677 -7.226935 18.551358 -56.837430 73.671330 -9.596656 3.831900 5.795280 3.538320 -29.987095 -18.154785 -35.605774 1.347655 -74.149661 -4.989290 -175.633742 -28.620711 132.674958 -18.945587 8.218855 -17.182510 13.025040 -5.148980 2.935960 45.635479 10.961380 -2.465681 147.322441 40.505837 137.559976 40.623886 44.839198 -9.256675 0.621032 -9.426729 0.407240 8.183760 7.225620 15.632980 
0.273930 7.256820 -4.293180 25.465273 24.449398 -79.359543 -16.028273 9.060768 10.996797 -99.824890 10.745442 13.550716 31.819733 -4.916671 133.278996 5.934648 26.138996 -0.948231 -6.558150 7.857720 -14.937690 18.698261 -13.858357 -4.760846 -134.506327 32.948116 50.359510 99.894510 70.622528 -31.064028 1.845416 -13.855898 -10.753809 10.446720 18.417870 8.432760 -3.029249 0.901861 -5.713046 -34.234575 -15.780728 6.141670 -96.342178 26.009419 33.016629 -16.702445 -9.658633 22.807818 -50.620054 55.737391 -3.526997 -3.936010 -14.620330 1.654740 -26.205521 -9.603423 -33.276422 2.571929 -74.845826 -30.031308 -158.948913 -16.927044 2.111420 -18.327394 10.551541 -18.647290 12.151250 -4.354610 3.558400 47.087160 7.190004 -0.805408 156.549342 34.107136 151.318918 26.792246 10.538854 -20.084220 1.511786 -11.121695 2.189080 6.444260 5.552780 16.153620 
0.525140 7.304560 -4.524780 60.009335 20.241304 -79.519527 -15.889790 9.200577 8.700001 -107.804092 24.507695 -6.203670 8.090001 22.881155 120.645962 8.345830 26.408398 -0.076918 -6.934320 9.130090 -15.826740 18.542658 -13.480714 -3.034718 -145.095507 38.714272 30.090572 77.792425 66.970683 -63.629322 2.293993 -13.794795 -10.760474 10.815450 18.251600 7.667350 -2.958068 4.047730 -6.494636 -31.304269 -7.058287 -1.383975 -104.799178 25.409616 15.787432 -15.263063 -15.977338 20.479874 -47.112715 23.538871 -0.083876 -14.282880 -35.445880 5.054500 -32.534906 -8.433346 -39.734297 -44.094689 -75.817367 69.401997 151.084997 -60.547573 -143.315979 -22.531609 12.835874 -20.614280 11.491360 -4.775500 3.892120 48.501722 3.331005 -3.913536 142.456806 29.013662 -175.974264 -52.184230 -6.161527 -36.431519 6.049910 -11.864621 2.918480 5.934670 4.892610 16.984450 
0.400060 6.700590 -4.437200 31.298580 11.321233 -84.940784 -15.770892 9.296082 8.408761 -95.531422 16.354863 21.860163 -5.958661 41.524320 112.039702 5.006424 29.687287 -1.372602 -6.951890 7.364870 -15.053210 18.755855 -11.932180 -1.916254 -108.918940 27.528549 74.552809 3.896297 65.811754 -119.863020 2.702709 -7.946662 -8.293029 10.918610 19.061890 7.965060 -3.533838 0.960627 -6.690147 -21.875571 -22.273688 2.821757 -113.883221 30.720763 26.329432 -10.165555 -12.384371 13.789689 -49.474309 58.812083 -4.388969 -3.577710 -7.133710 2.304120 -44.955921 1.689649 -10.662420 100.463871 -62.943661 -63.097090 137.017836 -61.869542 -95.835623 -23.722382 2.630779 -17.785690 12.727590 -4.695240 3.430880 53.715445 11.244269 -6.085111 162.825604 30.202060 -164.304020 31.753707 21.096531 -14.420221 -0.134016 -11.258840 0.939330 7.915460 5.898680 15.524980 
-0.127390 7.082900 -4.354830 30.166008 12.421947 -79.740657 -16.028499 7.253785 8.019163 -102.272857 16.277627 13.664643 8.916589 26.791219 123.347736 0.078473 29.876766 -3.322707 -8.732850 3.830910 -15.910930 18.837191 -8.137314 1.090519 -141.332217 9.101094 37.795011 132.525581 -12.695130 -8.128032 2.381951 -18.380299 -10.749038 10.705860 20.526570 7.089110 -3.258243 -1.045522 -8.255663 -24.380783 -21.815683 1.996393 -102.683319 35.591267 31.986903 -6.774277 -6.704719 18.231322 -12.899454 82.113978 35.412651 7.848690 23.508490 8.075910 -46.061001 -3.499123 -18.942965 128.529993 -77.895801 -87.686748 86.657919 -51.341883 -31.834655 -25.315204 1.396511 -15.420440 14.378560 -5.879970 1.962730 52.338414 4.669284 -11.591448 156.067894 16.968771 -145.249260 21.936887 -29.145039 -33.893968 -1.292873 -5.644434 -2.288710 10.367770 8.119280 13.946140 
-0.270180 6.848210 -4.153180 2.818488 10.522116 -79.783512 -16.507507 9.716873 9.743074 -89.462654 14.680176 39.283788 16.504036 25.881556 129.111152 -1.805620 28.080814 -3.624707 -10.453120 1.589180 -17.029030 18.417001 -10.796688 -3.207451 -101.508443 20.153931 88.482773 116.732786 43.393580 -15.810095 4.757182 -12.752424 -8.136282 10.049350 21.121950 5.580030 -1.999292 -3.699806 -4.900732 -16.708804 -38.000442 -2.078555 -92.489101 44.412917 47.000693 -4.577831 -0.717102 20.435409 104.188880 70.724859 149.230923 20.351350 39.195580 18.144970 -46.065725 -0.539776 -15.194748 116.404906 -71.856159 -82.369073 70.010287 -69.232385 -34.549752 -28.283728 2.394249 -14.895890 14.782450 -6.950930 0.786930 53.260665 0.342159 -11.598125 146.359981 20.538643 143.782395 -22.826355 -22.296312 -24.828826 0.413381 -5.096575 -3.925650 11.276630 9.347330 13.253830 
